# xmcd
#
# Track frame offsets:
#	150
#	22675
#	38437
#	57553
#	79221
#	95693
#	111718
#	135325
#	150792
#	173277
#
# Disc length: 2872 seconds
#
# Revision: 0
# Processed by: cddbd v1.5.2PL0 Copyright (c) Steve Scherf et al.
# Submitted via: dBpowerAMP V4.0
#
DISCID=6a0b360a
DTITLE=Eyoi Eyan - to telos tha'nai pali arxi
DYEAR=1900
DGENRE=
TTITLE0=S'auton ton kosmo
TTITLE1=Fotia sthn kardia
TTITLE2=Trikymia
TTITLE3=Enas
TTITLE4=Xtypas feugeis petas
TTITLE5=Xoreyo
TTITLE6=To doro
TTITLE7=Prosfores
TTITLE8=Busytone
TTITLE9=Kai pali ap'tin arxi
EXTD=
EXTT0=
EXTT1=
EXTT2=
EXTT3=
EXTT4=
EXTT5=
EXTT6=
EXTT7=
EXTT8=
EXTT9=
PLAYORDER=
